<svg width="338" height="70" viewBox="0 0 338 70" fill="none" xmlns="http://www.w3.org/2000/svg">
<path d="M0.101562 69V0.640625H4.00781V69H0.101562ZM12.2109 69V0.640625H16.1172V69H12.2109ZM24.3203 69V0.640625H28.2266V69H24.3203ZM36.0391 55.6211V18.8047H39.9453V55.1328C39.9453 57.8021 41.3451 60.3086 44.1445 62.6523C46.6185 64.6055 49.3203 65.582 52.25 65.582V69.4883C46.1302 69.4883 41.4753 67.0794 38.2852 62.2617C36.7878 59.9831 36.0391 57.7695 36.0391 55.6211ZM56.3516 69.4883V65.582C60.5833 65.582 63.9688 63.9219 66.5078 60.6016C67.9401 58.7786 68.6562 56.9557 68.6562 55.1328V18.8047H72.5625V55.6211C72.5625 58.5508 71.2279 61.4479 68.5586 64.3125C65.3034 67.6979 61.2344 69.4232 56.3516 69.4883ZM79.9844 69V32.1836C79.9844 27.8216 81.4492 24.306 84.3789 21.6367C86.8529 19.4232 90.043 18.3164 93.9492 18.3164V22.0273C89.7826 22.0273 86.8203 23.8503 85.0625 27.4961C84.2812 29.1237 83.8906 30.849 83.8906 32.6719V69H79.9844ZM98.2461 22.0273V18.3164C103.194 18.3164 106.905 20.0091 109.379 23.3945C109.704 23.9154 110.062 24.4688 110.453 25.0547C112.471 21.7344 114.913 19.6836 117.777 18.9023C119.21 18.5117 120.805 18.3164 122.562 18.3164V22.0273C118.396 22.0273 115.434 23.8177 113.676 27.3984C112.829 29.026 112.406 30.7839 112.406 32.6719V69H108.5V32.6719C108.5 28.6354 106.97 25.6081 103.91 23.5898C102.217 22.5482 100.329 22.0273 98.2461 22.0273ZM126.859 22.0273V18.3164C132.979 18.3164 137.243 20.9857 139.652 26.3242C140.499 28.3424 140.922 30.2956 140.922 32.1836V69H137.016V32.6719C137.016 28.4401 135.421 25.3477 132.23 23.3945C130.603 22.4831 128.812 22.0273 126.859 22.0273ZM148.734 12.0664C148.734 10.7643 149.385 9.91797 150.688 9.52734C151.013 9.46224 151.273 9.42969 151.469 9.42969C152.771 9.42969 153.617 10.0482 154.008 11.2852C154.073 11.5456 154.105 11.806 154.105 12.0664C154.105 13.3685 153.487 14.2148 152.25 14.6055C151.99 14.6706 151.729 14.7031 151.469 14.7031C150.102 14.7031 149.223 14.0846 148.832 12.8477C148.767 12.5221 148.734 12.2617 148.734 12.0664ZM149.516 69V18.6094H153.422V69H149.516ZM161.918 69V32.1836C161.918 29.1237 163.318 26.1615 166.117 23.2969C169.372 19.9766 173.376 18.3164 178.129 18.3164V22.2227C174.353 22.2227 171.13 23.6875 168.461 26.6172C166.703 28.5703 165.824 30.5885 165.824 32.6719V69H161.918ZM182.23 22.2227V18.3164C188.09 18.3164 192.647 20.6927 195.902 25.4453C197.595 27.8542 198.441 30.1003 198.441 32.1836V69H194.535V32.6719C194.535 30.5234 193.428 28.3099 191.215 26.0312C188.676 23.5573 185.681 22.2878 182.23 22.2227ZM205.082 69L218.461 10.5039H220.121L221.098 14.8984L208.988 69H205.082ZM216.215 55.8164L216.996 52.1055H233.598L222.367 0.738281H226.273L241.117 69H237.211L234.477 55.8164H216.215ZM248.148 69V0.640625H252.055V69H248.148ZM256.449 37.9453V34.1367H272.074C278.129 34.1367 281.905 31.7604 283.402 27.0078C284.053 24.9245 284.379 22.3854 284.379 19.3906C284.379 11.6432 281.872 6.82552 276.859 4.9375C274.841 4.22135 272.4 3.86328 269.535 3.86328H256.449V0.640625H271.684C280.147 1.09635 285.388 4.74219 287.406 11.5781C288.057 13.987 288.383 16.6888 288.383 19.6836C288.318 28.082 286.072 33.5508 281.645 36.0898C286.202 38.1732 288.708 42.0794 289.164 47.8086L290.824 69H286.918L285.453 51.6172C284.932 45.7578 283.565 41.9167 281.352 40.0938C279.464 38.5312 276.729 37.8151 273.148 37.9453H256.449ZM295.707 4.35156V0.640625H337.992V4.35156H318.754V69H314.848V4.35156H295.707Z" fill="#FFF2E7"/>
<path d="M0.101562 69H-0.898438V70H0.101562V69ZM0.101562 0.640625V-0.359375H-0.898438V0.640625H0.101562ZM4.00781 0.640625H5.00781V-0.359375H4.00781V0.640625ZM4.00781 69V70H5.00781V69H4.00781ZM1.10156 69V0.640625H-0.898438V69H1.10156ZM0.101562 1.64062H4.00781V-0.359375H0.101562V1.64062ZM3.00781 0.640625V69H5.00781V0.640625H3.00781ZM4.00781 68H0.101562V70H4.00781V68ZM12.2109 69H11.2109V70H12.2109V69ZM12.2109 0.640625V-0.359375H11.2109V0.640625H12.2109ZM16.1172 0.640625H17.1172V-0.359375H16.1172V0.640625ZM16.1172 69V70H17.1172V69H16.1172ZM13.2109 69V0.640625H11.2109V69H13.2109ZM12.2109 1.64062H16.1172V-0.359375H12.2109V1.64062ZM15.1172 0.640625V69H17.1172V0.640625H15.1172ZM16.1172 68H12.2109V70H16.1172V68ZM24.3203 69H23.3203V70H24.3203V69ZM24.3203 0.640625V-0.359375H23.3203V0.640625H24.3203ZM28.2266 0.640625H29.2266V-0.359375H28.2266V0.640625ZM28.2266 69V70H29.2266V69H28.2266ZM25.3203 69V0.640625H23.3203V69H25.3203ZM24.3203 1.64062H28.2266V-0.359375H24.3203V1.64062ZM27.2266 0.640625V69H29.2266V0.640625H27.2266ZM28.2266 68H24.3203V70H28.2266V68ZM36.0391 18.8047V17.8047H35.0391V18.8047H36.0391ZM39.9453 18.8047H40.9453V17.8047H39.9453V18.8047ZM44.1445 62.6523L43.5026 63.4191L43.5136 63.4283L43.5249 63.4372L44.1445 62.6523ZM52.25 65.582H53.25V64.582H52.25V65.582ZM52.25 69.4883V70.4883H53.25V69.4883H52.25ZM38.2852 62.2617L37.4494 62.8109L37.4514 62.8138L38.2852 62.2617ZM56.3516 69.4883H55.3516V70.5017L56.3649 70.4882L56.3516 69.4883ZM56.3516 65.582V64.582H55.3516V65.582H56.3516ZM66.5078 60.6016L65.7214 59.9837L65.7135 59.9941L66.5078 60.6016ZM68.6562 18.8047V17.8047H67.6562V18.8047H68.6562ZM72.5625 18.8047H73.5625V17.8047H72.5625V18.8047ZM68.5586 64.3125L69.2794 65.0056L69.2849 65L69.2902 64.9942L68.5586 64.3125ZM37.0391 55.6211V18.8047H35.0391V55.6211H37.0391ZM36.0391 19.8047H39.9453V17.8047H36.0391V19.8047ZM38.9453 18.8047V55.1328H40.9453V18.8047H38.9453ZM38.9453 55.1328C38.9453 58.1963 40.5641 60.959 43.5026 63.4191L44.7865 61.8856C42.126 59.6582 40.9453 57.4079 40.9453 55.1328H38.9453ZM43.5249 63.4372C46.161 65.5184 49.0779 66.582 52.25 66.582V64.582C49.5628 64.582 47.076 63.6926 44.7642 61.8675L43.5249 63.4372ZM51.25 65.582V69.4883H53.25V65.582H51.25ZM52.25 68.4883C46.442 68.4883 42.1111 66.2284 39.1189 61.7096L37.4514 62.8138C40.8394 67.9304 45.8184 70.4883 52.25 70.4883V68.4883ZM39.1209 61.7125C37.7019 59.5533 37.0391 57.5279 37.0391 55.6211H35.0391C35.0391 58.0111 35.8736 60.4128 37.4495 62.8109L39.1209 61.7125ZM57.3516 69.4883V65.582H55.3516V69.4883H57.3516ZM56.3516 66.582C60.8903 66.582 64.5712 64.7803 67.3022 61.209L65.7135 59.9941C63.3663 63.0634 60.2764 64.582 56.3516 64.582V66.582ZM67.2941 61.2194C68.8267 59.2689 69.6562 57.2346 69.6562 55.1328H67.6562C67.6562 56.6768 67.0535 58.2884 65.7215 59.9837L67.2941 61.2194ZM69.6562 55.1328V18.8047H67.6562V55.1328H69.6562ZM68.6562 19.8047H72.5625V17.8047H68.6562V19.8047ZM71.5625 18.8047V55.6211H73.5625V18.8047H71.5625ZM71.5625 55.6211C71.5625 58.2225 70.383 60.8877 67.827 63.6308L69.2902 64.9942C72.0727 62.0081 73.5625 58.8791 73.5625 55.6211H71.5625ZM67.8378 63.6194C64.776 66.8037 60.9656 68.4267 56.3382 68.4884L56.3649 70.4882C61.5032 70.4197 65.8308 68.5922 69.2794 65.0056L67.8378 63.6194ZM79.9844 69H78.9844V70H79.9844V69ZM84.3789 21.6367L83.7121 20.8914L83.7054 20.8975L84.3789 21.6367ZM93.9492 18.3164H94.9492V17.3164H93.9492V18.3164ZM93.9492 22.0273V23.0273H94.9492V22.0273H93.9492ZM85.0625 27.4961L84.1617 27.0618L84.161 27.0634L85.0625 27.4961ZM83.8906 69V70H84.8906V69H83.8906ZM98.2461 22.0273H97.2461V23.0273H98.2461V22.0273ZM98.2461 18.3164V17.3164H97.2461V18.3164H98.2461ZM109.379 23.3945L110.227 22.8645L110.208 22.8338L110.186 22.8045L109.379 23.3945ZM110.453 25.0547L109.621 25.6094L110.492 26.9159L111.308 25.5741L110.453 25.0547ZM117.777 18.9023L117.514 17.9376L117.777 18.9023ZM122.562 18.3164H123.562V17.3164H122.562V18.3164ZM122.562 22.0273V23.0273H123.562V22.0273H122.562ZM113.676 27.3984L114.563 27.8598L114.568 27.8495L114.573 27.8391L113.676 27.3984ZM112.406 69V70H113.406V69H112.406ZM108.5 69H107.5V70H108.5V69ZM103.91 23.5898L104.461 22.7551L104.448 22.7464L104.434 22.7382L103.91 23.5898ZM126.859 22.0273H125.859V23.0273H126.859V22.0273ZM126.859 18.3164V17.3164H125.859V18.3164H126.859ZM139.652 26.3242L140.575 25.9375L140.569 25.9251L140.564 25.9129L139.652 26.3242ZM140.922 69V70H141.922V69H140.922ZM137.016 69H136.016V70H137.016V69ZM132.23 23.3945L132.753 22.5417L132.736 22.5315L132.719 22.522L132.23 23.3945ZM80.9844 69V32.1836H78.9844V69H80.9844ZM80.9844 32.1836C80.9844 28.0714 82.3529 24.8354 85.0524 22.3759L83.7054 20.8975C80.5455 23.7765 78.9844 27.5718 78.9844 32.1836H80.9844ZM85.0457 22.382C87.3047 20.3608 90.243 19.3164 93.9492 19.3164V17.3164C89.843 17.3164 86.4011 18.4856 83.7121 20.8915L85.0457 22.382ZM92.9492 18.3164V22.0273H94.9492V18.3164H92.9492ZM93.9492 21.0273C91.7177 21.0273 89.7459 21.5168 88.0784 22.5429C86.4092 23.5701 85.1098 25.0954 84.1617 27.0618L85.9633 27.9304C86.773 26.251 87.8336 25.0419 89.1266 24.2462C90.4214 23.4494 92.014 23.0273 93.9492 23.0273V21.0273ZM84.161 27.0634C83.3143 28.8274 82.8906 30.7007 82.8906 32.6719H84.8906C84.8906 30.9973 85.2482 29.42 85.964 27.9288L84.161 27.0634ZM82.8906 32.6719V69H84.8906V32.6719H82.8906ZM83.8906 68H79.9844V70H83.8906V68ZM99.2461 22.0273V18.3164H97.2461V22.0273H99.2461ZM98.2461 19.3164C102.94 19.3164 106.321 20.9053 108.572 23.9845L110.186 22.8045C107.489 19.1129 103.448 17.3164 98.2461 17.3164V19.3164ZM108.531 23.9245C108.862 24.4548 109.226 25.0164 109.621 25.6094L111.285 24.5C110.899 23.9211 110.547 23.376 110.227 22.8645L108.531 23.9245ZM111.308 25.5741C113.235 22.4028 115.491 20.5623 118.04 19.8671L117.514 17.9376C114.334 18.8049 111.707 21.0659 109.599 24.5353L111.308 25.5741ZM118.04 19.8671C119.373 19.5037 120.878 19.3164 122.562 19.3164V17.3164C120.732 17.3164 119.046 17.5197 117.514 17.9376L118.04 19.8671ZM121.562 18.3164V22.0273H123.562V18.3164H121.562ZM122.562 21.0273C120.334 21.0273 118.365 21.5072 116.699 22.5143C115.03 23.523 113.728 25.0223 112.778 26.9578L114.573 27.8391C115.381 26.1939 116.44 25.0076 117.733 24.2259C119.029 23.4427 120.624 23.0273 122.562 23.0273V21.0273ZM112.789 26.9371C111.866 28.7114 111.406 30.6281 111.406 32.6719H113.406C113.406 30.9396 113.793 29.3406 114.563 27.8598L112.789 26.9371ZM111.406 32.6719V69H113.406V32.6719H111.406ZM112.406 68H108.5V70H112.406V68ZM109.5 69V32.6719H107.5V69H109.5ZM109.5 32.6719C109.5 28.3395 107.833 24.9794 104.461 22.7551L103.36 24.4246C106.107 26.2367 107.5 28.9313 107.5 32.6719H109.5ZM104.434 22.7382C102.576 21.5947 100.505 21.0273 98.2461 21.0273V23.0273C100.154 23.0273 101.859 23.5016 103.386 24.4415L104.434 22.7382ZM127.859 22.0273V18.3164H125.859V22.0273H127.859ZM126.859 19.3164C129.772 19.3164 132.175 19.9505 134.117 21.166C136.056 22.3796 137.604 24.2158 138.741 26.7355L140.564 25.9129C139.292 23.0941 137.504 20.9264 135.178 19.4707C132.855 18.0169 130.066 17.3164 126.859 17.3164V19.3164ZM138.73 26.7109C139.533 28.626 139.922 30.4478 139.922 32.1836H141.922C141.922 30.1434 141.464 28.0589 140.575 25.9375L138.73 26.7109ZM139.922 32.1836V69H141.922V32.1836H139.922ZM140.922 68H137.016V70H140.922V68ZM138.016 69V32.6719H136.016V69H138.016ZM138.016 32.6719C138.016 28.1464 136.283 24.7032 132.753 22.5417L131.708 24.2474C134.558 25.9921 136.016 28.7338 136.016 32.6719H138.016ZM132.719 22.522C130.935 21.523 128.975 21.0273 126.859 21.0273V23.0273C128.65 23.0273 130.271 23.4432 131.742 24.267L132.719 22.522ZM150.688 9.52734L150.491 8.54676L150.445 8.55599L150.4 8.56952L150.688 9.52734ZM154.008 11.2852L154.978 11.0426L154.971 11.0131L154.961 10.984L154.008 11.2852ZM152.25 14.6055L152.493 15.5756L152.522 15.5682L152.551 15.5591L152.25 14.6055ZM148.832 12.8477L147.851 13.0438L147.862 13.097L147.878 13.1488L148.832 12.8477ZM149.516 69H148.516V70H149.516V69ZM149.516 18.6094V17.6094H148.516V18.6094H149.516ZM153.422 18.6094H154.422V17.6094H153.422V18.6094ZM153.422 69V70H154.422V69H153.422ZM149.734 12.0664C149.734 11.5862 149.852 11.2775 150.015 11.0648C150.182 10.8481 150.47 10.6368 150.975 10.4852L150.4 8.56952C149.603 8.80854 148.914 9.21568 148.43 9.84537C147.943 10.479 147.734 11.2445 147.734 12.0664H149.734ZM150.884 10.5079C151.183 10.4481 151.369 10.4297 151.469 10.4297V8.42969C151.178 8.42969 150.843 8.47636 150.491 8.54676L150.884 10.5079ZM151.469 10.4297C151.96 10.4297 152.276 10.5444 152.49 10.7009C152.704 10.8572 152.908 11.122 153.054 11.5863L154.961 10.984C154.717 10.2114 154.303 9.54839 153.67 9.08616C153.038 8.62418 152.28 8.42969 151.469 8.42969V10.4297ZM153.038 11.5277C153.084 11.7112 153.105 11.8902 153.105 12.0664H155.105C155.105 11.7217 155.062 11.3799 154.978 11.0426L153.038 11.5277ZM153.105 12.0664C153.105 12.5574 152.991 12.8736 152.834 13.0877C152.678 13.3015 152.413 13.5053 151.949 13.6519L152.551 15.5591C153.324 15.3151 153.987 14.9003 154.449 14.2678C154.911 13.6356 155.105 12.8775 155.105 12.0664H153.105ZM152.007 13.6353C151.824 13.6812 151.645 13.7031 151.469 13.7031V15.7031C151.813 15.7031 152.155 15.6599 152.493 15.5756L152.007 13.6353ZM151.469 13.7031C150.935 13.7031 150.59 13.5835 150.36 13.4215C150.134 13.2628 149.929 13.0005 149.786 12.5465L147.878 13.1488C148.126 13.9318 148.555 14.5972 149.209 15.0571C149.857 15.5135 150.635 15.7031 151.469 15.7031V13.7031ZM149.813 12.6515C149.753 12.3525 149.734 12.1659 149.734 12.0664H147.734C147.734 12.3575 147.781 12.6918 147.851 13.0438L149.813 12.6515ZM150.516 69V18.6094H148.516V69H150.516ZM149.516 19.6094H153.422V17.6094H149.516V19.6094ZM152.422 18.6094V69H154.422V18.6094H152.422ZM153.422 68H149.516V70H153.422V68ZM161.918 69H160.918V70H161.918V69ZM166.117 23.2969L165.403 22.5968L165.402 22.5979L166.117 23.2969ZM178.129 18.3164H179.129V17.3164H178.129V18.3164ZM178.129 22.2227V23.2227H179.129V22.2227H178.129ZM168.461 26.6172L167.722 25.9437L167.718 25.9482L168.461 26.6172ZM165.824 69V70H166.824V69H165.824ZM182.23 22.2227H181.23V23.204L182.212 23.2225L182.23 22.2227ZM182.23 18.3164V17.3164H181.23V18.3164H182.23ZM195.902 25.4453L195.077 26.0104L195.084 26.0203L195.902 25.4453ZM198.441 69V70H199.441V69H198.441ZM194.535 69H193.535V70H194.535V69ZM191.215 26.0312L191.932 25.3345L191.923 25.3246L191.913 25.315L191.215 26.0312ZM162.918 69V32.1836H160.918V69H162.918ZM162.918 32.1836C162.918 29.4581 164.157 26.7334 166.832 23.9958L165.402 22.5979C162.478 25.5895 160.918 28.7893 160.918 32.1836H162.918ZM166.831 23.9969C169.894 20.8732 173.638 19.3164 178.129 19.3164V17.3164C173.114 17.3164 168.851 19.0799 165.403 22.5968L166.831 23.9969ZM177.129 18.3164V22.2227H179.129V18.3164H177.129ZM178.129 21.2227C174.056 21.2227 170.57 22.8177 167.722 25.9437L169.2 27.2907C171.691 24.5573 174.65 23.2227 178.129 23.2227V21.2227ZM167.718 25.9482C165.839 28.0352 164.824 30.2819 164.824 32.6719H166.824C166.824 30.8952 167.567 29.1054 169.204 27.2862L167.718 25.9482ZM164.824 32.6719V69H166.824V32.6719H164.824ZM165.824 68H161.918V70H165.824V68ZM183.23 22.2227V18.3164H181.23V22.2227H183.23ZM182.23 19.3164C187.767 19.3164 192.012 21.5355 195.077 26.0104L196.727 24.8802C193.282 19.8499 188.413 17.3164 182.23 17.3164V19.3164ZM195.084 26.0203C196.706 28.3279 197.441 30.3752 197.441 32.1836H199.441C199.441 29.8253 198.484 27.3804 196.721 24.8704L195.084 26.0203ZM197.441 32.1836V69H199.441V32.1836H197.441ZM198.441 68H194.535V70H198.441V68ZM195.535 69V32.6719H193.535V69H195.535ZM195.535 32.6719C195.535 30.1617 194.241 27.7114 191.932 25.3345L190.498 26.728C192.616 28.9084 193.535 30.8852 193.535 32.6719H195.535ZM191.913 25.315C189.197 22.669 185.962 21.2929 182.249 21.2228L182.212 23.2225C185.4 23.2826 188.154 24.4456 190.517 26.7475L191.913 25.315ZM205.082 69L204.107 68.777L203.827 70H205.082V69ZM218.461 10.5039V9.50391H217.664L217.486 10.2809L218.461 10.5039ZM220.121 10.5039L221.097 10.287L220.923 9.50391H220.121V10.5039ZM221.098 14.8984L222.074 15.1169L222.122 14.8992L222.074 14.6815L221.098 14.8984ZM208.988 69V70H209.789L209.964 69.2184L208.988 69ZM216.215 55.8164L215.236 55.6104L214.982 56.8164H216.215V55.8164ZM216.996 52.1055V51.1055H216.185L216.018 51.8995L216.996 52.1055ZM233.598 52.1055V53.1055H234.84L234.575 51.8919L233.598 52.1055ZM222.367 0.738281V-0.261719H221.125L221.39 0.951867L222.367 0.738281ZM226.273 0.738281L227.251 0.525794L227.079 -0.261719H226.273V0.738281ZM241.117 69V70H242.358L242.094 68.7875L241.117 69ZM237.211 69L236.232 69.2031L236.397 70H237.211V69ZM234.477 55.8164L235.456 55.6133L235.29 54.8164H234.477V55.8164ZM206.057 69.223L219.436 10.7269L217.486 10.2809L204.107 68.777L206.057 69.223ZM218.461 11.5039H220.121V9.50391H218.461V11.5039ZM219.145 10.7208L220.121 15.1154L222.074 14.6815L221.097 10.287L219.145 10.7208ZM220.122 14.68L208.012 68.7816L209.964 69.2184L222.074 15.1169L220.122 14.68ZM208.988 68H205.082V70H208.988V68ZM217.193 56.0224L217.975 52.3115L216.018 51.8995L215.236 55.6104L217.193 56.0224ZM216.996 53.1055H233.598V51.1055H216.996V53.1055ZM234.575 51.8919L223.344 0.524695L221.39 0.951867L232.621 52.3191L234.575 51.8919ZM222.367 1.73828H226.273V-0.261719H222.367V1.73828ZM225.296 0.950769L240.14 69.2125L242.094 68.7875L227.251 0.525794L225.296 0.950769ZM241.117 68H237.211V70H241.117V68ZM238.19 68.7969L235.456 55.6133L233.497 56.0195L236.232 69.2031L238.19 68.7969ZM234.477 54.8164H216.215V56.8164H234.477V54.8164ZM248.148 69H247.148V70H248.148V69ZM248.148 0.640625V-0.359375H247.148V0.640625H248.148ZM252.055 0.640625H253.055V-0.359375H252.055V0.640625ZM252.055 69V70H253.055V69H252.055ZM256.449 37.9453H255.449V38.9453H256.449V37.9453ZM256.449 34.1367V33.1367H255.449V34.1367H256.449ZM283.402 27.0078L284.356 27.3083L284.357 27.3061L283.402 27.0078ZM276.859 4.9375L277.212 4.00167L277.203 3.99829L277.194 3.99507L276.859 4.9375ZM256.449 3.86328H255.449V4.86328H256.449V3.86328ZM256.449 0.640625V-0.359375H255.449V0.640625H256.449ZM271.684 0.640625L271.737 -0.357928L271.71 -0.359375H271.684V0.640625ZM287.406 11.5781L288.372 11.3172L288.369 11.3061L288.365 11.295L287.406 11.5781ZM288.383 19.6836L289.383 19.6913V19.6836H288.383ZM281.645 36.0898L281.147 35.2224L279.459 36.1904L281.229 36.9993L281.645 36.0898ZM289.164 47.8086L290.161 47.7305L290.161 47.7293L289.164 47.8086ZM290.824 69V70H291.906L291.821 68.9219L290.824 69ZM286.918 69L285.922 69.084L285.999 70H286.918V69ZM285.453 51.6172L286.45 51.5332L286.449 51.5286L285.453 51.6172ZM281.352 40.0938L280.714 40.8641L280.716 40.8657L281.352 40.0938ZM273.148 37.9453V38.9453H273.167L273.185 38.9447L273.148 37.9453ZM249.148 69V0.640625H247.148V69H249.148ZM248.148 1.64062H252.055V-0.359375H248.148V1.64062ZM251.055 0.640625V69H253.055V0.640625H251.055ZM252.055 68H248.148V70H252.055V68ZM257.449 37.9453V34.1367H255.449V37.9453H257.449ZM256.449 35.1367H272.074V33.1367H256.449V35.1367ZM272.074 35.1367C275.225 35.1367 277.885 34.5192 279.98 33.2008C282.092 31.8715 283.545 29.8825 284.356 27.3083L282.449 26.7073C281.762 28.8857 280.578 30.4612 278.915 31.5081C277.234 32.5661 274.978 33.1367 272.074 33.1367V35.1367ZM284.357 27.3061C285.047 25.0978 285.379 22.4518 285.379 19.3906H283.379C283.379 22.3191 283.06 24.7511 282.448 26.7095L284.357 27.3061ZM285.379 19.3906C285.379 15.4204 284.738 12.1044 283.386 9.50526C282.021 6.88117 279.952 5.03383 277.212 4.00167L276.507 5.87333C278.779 6.72919 280.471 8.23471 281.612 10.4283C282.766 12.6469 283.379 15.6135 283.379 19.3906H285.379ZM277.194 3.99507C275.039 3.23039 272.478 2.86328 269.535 2.86328V4.86328C272.322 4.86328 274.644 5.21232 276.525 5.87993L277.194 3.99507ZM269.535 2.86328H256.449V4.86328H269.535V2.86328ZM257.449 3.86328V0.640625H255.449V3.86328H257.449ZM256.449 1.64062H271.684V-0.359375H256.449V1.64062ZM271.63 1.63918C275.735 1.86024 278.965 2.85035 281.391 4.5377C283.803 6.21554 285.495 8.63455 286.447 11.8613L288.365 11.295C287.3 7.68576 285.362 4.86388 282.533 2.89589C279.718 0.937412 276.095 -0.12326 271.737 -0.357928L271.63 1.63918ZM286.441 11.839C287.065 14.1479 287.383 16.7599 287.383 19.6836H289.383C289.383 16.6177 289.05 13.8261 288.372 11.3172L286.441 11.839ZM287.383 19.6758C287.319 27.958 285.103 32.9534 281.147 35.2224L282.142 36.9573C287.04 34.1481 289.317 28.2061 289.383 19.6913L287.383 19.6758ZM281.229 36.9993C285.402 38.9069 287.735 42.4563 288.167 47.8879L290.161 47.7293C289.682 41.7026 287.002 37.4395 282.06 35.1804L281.229 36.9993ZM288.167 47.8867L289.827 69.0781L291.821 68.9219L290.161 47.7305L288.167 47.8867ZM290.824 68H286.918V70H290.824V68ZM287.914 68.916L286.45 51.5332L284.457 51.7012L285.922 69.084L287.914 68.916ZM286.449 51.5286C286.184 48.5484 285.701 46.0333 284.979 44.0065C284.259 41.9835 283.281 40.387 281.987 39.3218L280.716 40.8657C281.636 41.6234 282.448 42.8589 283.095 44.6771C283.741 46.4915 284.201 48.8266 284.457 51.7057L286.449 51.5286ZM281.989 39.3234C279.841 37.5457 276.827 36.8109 273.112 36.946L273.185 38.9447C276.632 38.8193 279.086 39.5168 280.714 40.8641L281.989 39.3234ZM273.148 36.9453H256.449V38.9453H273.148V36.9453ZM295.707 4.35156H294.707V5.35156H295.707V4.35156ZM295.707 0.640625V-0.359375H294.707V0.640625H295.707ZM337.992 0.640625H338.992V-0.359375H337.992V0.640625ZM337.992 4.35156V5.35156H338.992V4.35156H337.992ZM318.754 4.35156V3.35156H317.754V4.35156H318.754ZM318.754 69V70H319.754V69H318.754ZM314.848 69H313.848V70H314.848V69ZM314.848 4.35156H315.848V3.35156H314.848V4.35156ZM296.707 4.35156V0.640625H294.707V4.35156H296.707ZM295.707 1.64062H337.992V-0.359375H295.707V1.64062ZM336.992 0.640625V4.35156H338.992V0.640625H336.992ZM337.992 3.35156H318.754V5.35156H337.992V3.35156ZM317.754 4.35156V69H319.754V4.35156H317.754ZM318.754 68H314.848V70H318.754V68ZM315.848 69V4.35156H313.848V69H315.848ZM314.848 3.35156H295.707V5.35156H314.848V3.35156Z" fill="#A45A49"/>
</svg>
